<svg xmlns="http://www.w3.org/2000/svg" width="1200" height="630" viewBox="0 0 1200 630" role="img" aria-labelledby="title desc">
  <title id="title">Raindrop MCP social preview</title>
  <desc id="desc">Raindrop MCP landing preview showing saved bookmarks connected to an LLM through MCP.</desc>
  <defs>
    <linearGradient id="paper" x1="0" y1="0" x2="1" y2="1">
      <stop offset="0" stop-color="#fbfcfd"/>
      <stop offset="0.62" stop-color="#f3f7fc"/>
      <stop offset="1" stop-color="#eef6ff"/>
    </linearGradient>
    <filter id="softShadow" x="-20%" y="-20%" width="140%" height="140%">
      <feDropShadow dx="0" dy="18" stdDeviation="24" flood-color="#0b1f3a" flood-opacity="0.15"/>
    </filter>
    <pattern id="grid" width="44" height="44" patternUnits="userSpaceOnUse">
      <path d="M44 0H0V44" fill="none" stroke="#dce4ee" stroke-width="1" opacity="0.55"/>
    </pattern>
  </defs>

  <rect width="1200" height="630" fill="url(#paper)"/>
  <rect width="1200" height="630" fill="url(#grid)" opacity="0.55"/>

  <g opacity="0.42" stroke="#8a95a4" stroke-width="1.4" fill="none">
    <rect x="50" y="330" width="210" height="145" rx="14"/>
    <rect x="88" y="368" width="134" height="8" rx="4"/>
    <rect x="88" y="392" width="96" height="8" rx="4"/>
    <path d="M65 474h168M84 494h132M108 514h88"/>
    <rect x="240" y="380" width="180" height="124" rx="12"/>
    <path d="M265 424h104M265 448h82M265 472h120"/>
    <rect x="940" y="84" width="204" height="136" rx="14"/>
    <path d="M970 130h116M970 154h84M970 178h128"/>
    <rect x="842" y="350" width="250" height="160" rx="16"/>
    <path d="M875 398h142M875 424h98M875 450h158"/>
    <path d="M716 156c64 4 102 29 132 80M704 220c50 34 105 40 168 10" opacity="0.55"/>
  </g>

  <g opacity="0.88">
    <path fill="#0b63f6" d="M110 78c-12 16.2-26.2 34.6-26.2 51.5 0 17.4 11.8 28.6 26.2 28.6s26.2-11.2 26.2-28.6C136.2 112.6 122 94.2 110 78Z"/>
    <rect x="238" y="358" width="14" height="70" rx="5" fill="#0b63f6" opacity="0.7"/>
    <rect x="1018" y="352" width="16" height="76" rx="5" fill="#0b63f6" opacity="0.7"/>
    <circle cx="782" cy="206" r="8" fill="#0b63f6" opacity="0.55"/>
    <circle cx="480" cy="500" r="6" fill="#0b63f6" opacity="0.38"/>
  </g>

  <g transform="translate(96 84)">
    <text x="58" y="34" fill="#0b1f3a" font-family="Arial, Helvetica, sans-serif" font-size="28" font-weight="800">Raindrop MCP</text>

    <text x="0" y="166" fill="#0b1f3a" font-family="Arial, Helvetica, sans-serif" font-size="74" font-weight="800" letter-spacing="-3">
      Prompt your
    </text>
    <text x="0" y="248" fill="#0b1f3a" font-family="Arial, Helvetica, sans-serif" font-size="74" font-weight="800" letter-spacing="-3">
      saved web
    </text>
    <text x="0" y="330" fill="#0b63f6" font-family="Arial, Helvetica, sans-serif" font-size="74" font-weight="800" letter-spacing="-3">
      with tools.
    </text>

    <text x="0" y="390" fill="#536174" font-family="Arial, Helvetica, sans-serif" font-size="28" font-weight="600">
      Real prompt examples for bookmarks,
    </text>
    <text x="0" y="430" fill="#536174" font-family="Arial, Helvetica, sans-serif" font-size="28" font-weight="600">
      tags, highlights, and collections.
    </text>
  </g>

  <g transform="translate(730 142)" filter="url(#softShadow)">
    <rect width="360" height="316" rx="18" fill="#ffffff" stroke="#d9e0ea"/>
    <rect x="0" y="0" width="360" height="52" rx="18" fill="#fbfcfd"/>
    <rect x="0" y="51" width="360" height="1" fill="#d9e0ea"/>
    <circle cx="26" cy="26" r="6" fill="#1d9a58"/>
    <text x="45" y="31" fill="#0b1f3a" font-family="Arial, Helvetica, sans-serif" font-size="16" font-weight="800">raindrop-mcp</text>
    <text x="176" y="31" fill="#8a95a4" font-family="Arial, Helvetica, sans-serif" font-size="15">OAuth ready</text>

    <text x="28" y="93" fill="#8a95a4" font-family="Arial, Helvetica, sans-serif" font-size="13" font-weight="800">ASK YOUR LIBRARY</text>
    <rect x="28" y="112" width="304" height="96" rx="10" fill="#0c1320"/>
    <text x="48" y="144" fill="#d9e7ff" font-family="Menlo, Consolas, monospace" font-size="16">bookmark_search</text>
    <text x="48" y="174" fill="#7dd3fc" font-family="Menlo, Consolas, monospace" font-size="13">"collection": 0</text>

    <text x="28" y="246" fill="#0b1f3a" font-family="Arial, Helvetica, sans-serif" font-size="18" font-weight="800">Bookmarks, tags, highlights</text>
    <text x="28" y="278" fill="#536174" font-family="Arial, Helvetica, sans-serif" font-size="17">Your saved web as model context</text>
  </g>
</svg>
